<?xml version="1.0" encoding="utf-8"?>
<!-- Generator: Adobe Illustrator 26.0.0, SVG Export Plug-In . SVG Version: 6.00 Build 0)  -->
<svg version="1.1" id="Ebene_1" xmlns="http://www.w3.org/2000/svg" xmlns:xlink="http://www.w3.org/1999/xlink" x="0px" y="0px"
	 viewBox="0 0 526.5 451" style="enable-background:new 0 0 526.5 451;" xml:space="preserve">
<path id="Path_2" d="M68.5,451l-7.8-7.5c0.2-0.2,19.1-20.5,16.7-50.6c-2.1-26.8-19.9-53.1-52.8-78.4C3.9,298.6-3.1,288.4,1.2,280.3
	c4.7-8.9,21.5-14,112.6,9.3c41.8,10.7,94.8,26.3,157.5,46.4c11.2,3.6,14.9,2.3,15.3,1.8c0.1-0.2,3.1-5.6-14.8-32.1
	C260.5,289.1,243,267,219.6,240C176.9,190.7,123,134.7,87.4,97.7C76.7,86.6,67.5,77,60.7,69.8c-6.9-7.3-12.7-14.3-8.4-19.8
	c3.9-4.8,11.6-2.6,24.4,3.3c9.6,4.4,22.9,11.3,40.4,21.1c32.4,18.1,74.1,43,114.4,67.1c52.4,31.3,101.9,60.9,125.8,72.4
	c9,4.4,12.6,4.4,13.5,4.2c0.2-1.2,0.3-6.5-8.2-22.7c-6.3-12-16.4-28-29.9-47.5c-25-36.1-57-77.8-82.7-111.2l-6.9-9
	c-3.5-4.5-12.7-16.6-6.2-24c3.7-4.2,10.7-4.8,22.7-1.7c8.7,2.2,20.6,6.5,35.2,12.7C319.1,25,351.7,41,391.6,62
	c67.8,35.7,134.3,74.4,134.9,74.8l-5.4,9.4c-0.6-0.4-64.4-37.5-130.6-72.5c-38.8-20.5-70.8-36.3-95.1-46.9
	c-36-15.7-46.8-16.3-49.8-15.9c0.4,1.4,1.7,4.4,6.1,10.2l6.9,9c26.4,34.3,59.3,77.1,84.6,113.9c41,59.7,41.5,74.2,36,81
	c-5.9,7.3-18,2.7-26.6-1.5c-24.3-11.7-74-41.4-126.6-72.8c-37.9-22.7-77.2-46.1-108.6-63.8C90,71.4,75.2,64.2,67.2,60.8
	c0.4,0.5,0.9,1,1.4,1.5c6.8,7.2,16,16.8,26.7,27.9c35.7,37.1,89.7,93.3,132.6,142.8c70.2,81,73.7,101.3,68,110.6
	c-5.4,8.7-18.4,5.7-27.7,2.8c-61-19.5-112.8-34.8-153.9-45.5c-29.5-7.6-53.4-12.8-71-15.3c-25.2-3.7-31.1-1-32.2-0.2
	c0.2,1.2,2.3,6.8,20.3,20.6c35.5,27.3,54.7,56.3,57,86.4C90.9,427.2,69.5,450,68.5,451z"/>
</svg>
